<?xml version="1.0" encoding="UTF-8"?>
<svg width="90px" height="39px" viewBox="0 0 90 39" version="1.1" xmlns="http://www.w3.org/2000/svg" xmlns:xlink="http://www.w3.org/1999/xlink">
    <!-- Generator: Sketch Beta 56 (81588) - https://sketch.com -->
    <title>Group 35</title>
    <desc>Created with Sketch Beta.</desc>
    <defs>
        <polygon id="path-1" points="0.230497297 0.168364114 14.5029297 0.168364114 14.5029297 20.0516634 0.230497297 20.0516634"></polygon>
        <polygon id="path-3" points="0.31396036 0.168364114 12.7762306 0.168364114 12.7762306 20.0521659 0.31396036 20.0521659"></polygon>
        <polygon id="path-5" points="0.473675676 0.168364114 19.5201622 0.168364114 19.5201622 20.0519146 0.473675676 20.0519146"></polygon>
        <polygon id="path-7" points="1.52815315 1.25644861 2.7713964 1.25644861 2.7713964 2.51289722 1.52815315 2.51289722"></polygon>
    </defs>
    <g id="Desktop" stroke="none" stroke-width="1" fill="none" fill-rule="evenodd">
        <g transform="translate(-101.000000, -33.000000)" id="Group-21">
            <g transform="translate(100.000000, 33.000000)">
                <g id="Group-35">
                    <g id="Group-3" transform="translate(1.528153, 0.600639)">
                        <mask id="mask-2" fill="white">
                            <use xlink:href="#path-1"></use>
                        </mask>
                        <g id="Clip-2"></g>
                        <path d="M10.2783892,13.7166495 C10.2783892,12.2038853 9.41309189,10.9574883 8.33892973,10.9072304 L4.42768649,10.9072304 L4.42768649,16.5260686 L8.25936216,16.5260686 C9.38822703,16.5260686 10.2783892,15.2545426 10.2783892,13.7166495 L10.2783892,13.7166495 Z M4.42768649,7.38163558 L8.33892973,7.38163558 C8.83622703,7.24845203 9.28379459,6.42673464 9.28379459,5.52460454 C9.28379459,4.54457462 8.83622703,3.69521536 8.25936216,3.69521536 L4.42768649,3.69521536 L4.42768649,7.38163558 Z M12.3247676,8.89188681 C13.6624973,10.0578711 14.5029297,11.8068476 14.5029297,13.7166495 C14.5029297,17.2171153 11.7205514,20.0516634 8.25936216,20.0516634 L0.230497297,20.0516634 L0.230497297,0.167107665 L8.25936216,0.167107665 C11.1685514,0.167107665 13.4784973,2.579489 13.4784973,5.52460454 C13.4784973,6.74587258 13.0334162,7.93698587 12.3247676,8.89188681 L12.3247676,8.89188681 Z" id="Fill-1" fill="#000000" mask="url(#mask-2)"></path>
                    </g>
                    <g id="Group-6" transform="translate(18.363739, 0.600639)">
                        <mask id="mask-4" fill="white">
                            <use xlink:href="#path-3"></use>
                        </mask>
                        <g id="Clip-5"></g>
                        <polygon id="Fill-4" fill="#000000" mask="url(#mask-4)" points="12.7762306 16.5265711 12.7762306 20.0521659 0.31396036 20.0521659 0.31396036 0.167610245 4.5385009 0.167610245 4.5385009 16.5265711"></polygon>
                    </g>
                    <polygon id="Fill-7" fill="#000000" points="68.3984775 20.6535587 63.9128559 20.6535587 55.2026937 7.61162209 55.2026937 20.6535587 50.9806396 20.6535587 50.9806396 0.769002961 55.4389099 0.769002961 64.1764234 13.8410943 64.1764234 0.769002961 68.3984775 0.769002961"></polygon>
                    <g id="Group-11" transform="translate(71.149775, 0.600639)">
                        <mask id="mask-6" fill="white">
                            <use xlink:href="#path-5"></use>
                        </mask>
                        <g id="Clip-10"></g>
                        <path d="M9.68113514,8.57300015 C12.645027,12.1262368 16.3200541,16.5816036 19.2043784,20.0519146 L13.5898919,20.0519146 L6.50837838,11.2241067 L4.67086486,12.7619998 L4.67086486,20.0519146 L0.473675676,20.0519146 L0.473675676,0.167358955 L4.67086486,0.167358955 L4.67086486,7.75128276 C7.58254054,5.23335975 10.5986486,2.660153 13.4605946,0.167358955 L19.5201622,0.167358955 L9.68113514,8.57300015 Z" id="Fill-9" fill="#000000" mask="url(#mask-6)"></path>
                    </g>
                    <path d="M42.4942613,8.23381544 L42.4942613,4.17799933 L40.8283153,0.810717055 L39.1598829,4.17799933 L39.1598829,8.23381544 L37.4939369,9.91996947 L37.4939369,13.2872517 L37.9812883,12.792211 C38.7346937,12.0308031 39.7591261,11.6036106 40.8258288,11.6036106 C41.895018,11.6036106 42.916964,12.0308031 43.6728559,12.792211 L44.1602072,13.2872517 L44.1602072,9.91996947 L42.4942613,8.23381544 Z" id="Fill-12" fill="#000000"></path>
                    <path d="M38.8933315,19.4094232 L38.8933315,19.4094232 C38.8933315,19.4069103 38.8933315,19.4043974 38.8933315,19.4094232" id="Fill-14" fill="#000000"></path>
                    <path d="M44.7015153,19.7529363 C44.7114613,19.7504234 44.7214072,19.7504234 44.7313532,19.7479105 L44.7089748,19.7403718 C44.7064883,19.7453976 44.7040018,19.7479105 44.7015153,19.7529363" id="Fill-16" fill="#000000"></path>
                    <g id="Group-20" transform="translate(0.000000, 35.781200)">
                        <mask id="mask-8" fill="white">
                            <use xlink:href="#path-7"></use>
                        </mask>
                        <g id="Clip-19"></g>
                        <path d="" id="Fill-18" fill="#FFFFFF" mask="url(#mask-8)"></path>
                    </g>
                    <path d="M38.8933315,19.4094232 L38.8933315,19.4094232 C38.8933315,19.4119361 38.8933315,19.4094232 38.8933315,19.4094232" id="Fill-21" fill="#000000"></path>
                    <path d="M40.9145964,18.3406881 C40.9145964,18.3406881 40.7852991,17.3104002 41.8868126,17.3455808 C41.8868126,17.3455808 41.9812991,17.3204518 42.1603261,17.3958387 C42.1603261,17.3958387 41.0090829,17.5139449 40.9145964,18.3406881 M40.0020559,20.1801288 C39.7036775,19.6599591 39.0298396,19.4388241 38.4504883,19.687601 C38.418164,19.7001655 38.3957856,19.710217 38.3858396,19.7177557 C38.403245,19.7051912 38.4480018,19.6700107 38.505191,19.5996496 C38.592218,19.491595 38.7389207,19.3785146 38.8930829,19.4086694 C38.8930829,19.4036436 38.8930829,19.4061565 38.8930829,19.4086694 C39.3530829,19.3760017 39.8006505,19.6298043 40.0020559,20.0796129 C40.0020559,20.0821258 39.9995694,20.1776159 40.0020559,20.1801288 M44.945191,19.0694282 C45.4598937,17.1571135 43.565191,15.3000824 41.5859477,16.0991837 C41.8694072,15.9232809 42.1677856,15.8277908 42.4761099,15.7699942 C42.4736234,15.7599426 42.4711369,15.7624555 42.4686505,15.7549168 C41.8892991,14.4658005 40.0841099,14.4884166 39.5147045,15.7574297 C39.7683261,15.9760518 39.9572991,16.2675478 40.0517856,16.6268922 C38.8881099,14.2119979 35.5263802,16.9209011 37.5652991,18.6095681 C37.2569748,18.4412039 36.9983802,18.1773497 36.8367586,17.8381086 C36.6452991,17.8406215 36.4563261,17.780312 36.2698396,17.8205183 C35.6109207,17.9964211 34.6163261,20.4615733 34.6660559,20.4615733 L46.9890829,20.4615733 C46.5166505,20.4615733 45.6140559,18.9261931 44.945191,19.0694282" id="Fill-23" fill="#000000"></path>
                    <path d="M1.52815315,36.5604493 L2.63961261,35.223588 C3.64912613,36.1056149 4.67355856,36.6081944 5.96404505,36.6081944 C7.10782883,36.6081944 7.82890991,36.0603828 7.82890991,35.2688202 L7.82890991,35.2386654 C7.82890991,34.4797704 7.40869369,34.0701682 5.45431532,33.6128209 C3.21399099,33.0650093 1.94836937,32.3965787 1.94836937,30.4340059 L1.94836937,30.4063641 C1.94836937,28.5794878 3.45269369,27.3180134 5.54382883,27.3180134 C7.07799099,27.3180134 8.29636937,27.790438 9.36307207,28.6548747 L8.37096396,30.0721487 C7.42361261,29.355973 6.47626126,28.9765255 5.51399099,28.9765255 C4.42988288,28.9765255 3.79831532,29.5394145 3.79831532,30.2379999 L3.79831532,30.2681547 C3.79831532,31.0898721 4.28069369,31.4542422 6.31215315,31.9392314 C8.53507207,32.487043 9.67885586,33.293683 9.67885586,35.0552239 L9.67885586,35.0878916 C9.67885586,37.0781062 8.12977477,38.2641937 5.92177477,38.2641937 C4.31053153,38.2641937 2.79128829,37.7013047 1.52815315,36.5604493" id="Fill-25" fill="#000000"></path>
                    <path d="M25.7883045,33.0044485 C27.1857099,33.0044485 28.0584667,32.2153988 28.0584667,31.1046982 L28.0584667,31.0720305 C28.0584667,29.8256335 27.1732775,29.1747931 25.7883045,29.1747931 L23.6374937,29.1747931 L23.6374937,33.0044485 L25.7883045,33.0044485 Z M21.7875477,27.4710488 L25.9399802,27.4710488 C28.4065748,27.4710488 29.9407369,28.883297 29.9407369,31.0293113 L29.9407369,31.059466 C29.9407369,33.4467184 28.0435477,34.6906025 25.7286288,34.6906025 L23.6374937,34.6906025 L23.6374937,38.1106556 L21.7875477,38.1106556 L21.7875477,27.4710488 Z" id="Fill-27" fill="#000000"></path>
                    <path d="M47.0860559,33.8854703 L45.2659477,29.6311353 L43.4607586,33.8854703 L47.0860559,33.8854703 Z M44.4404342,27.3946567 L46.1536234,27.3946567 L50.7859477,38.1121634 L48.8290829,38.1121634 L47.7623802,35.5414695 L42.7844342,35.5414695 L41.7003261,38.1121634 L39.8056234,38.1121634 L44.4404342,27.3946567 Z" id="Fill-29" fill="#000000"></path>
                    <path d="M61.3883261,32.8230173 L61.3883261,32.7903496 C61.3883261,29.7673343 63.6286505,27.2896176 66.8188126,27.2896176 C68.7607586,27.2896176 69.9343802,27.9731257 70.9414072,28.9456169 L69.7503802,30.3302233 C68.9074613,29.5386606 68.0073532,29.0059264 66.8038937,29.0059264 C64.8022721,29.0059264 63.3277856,30.6770031 63.3277856,32.7627078 L63.3277856,32.7903496 C63.3277856,34.8735414 64.7873532,36.5596955 66.8038937,36.5596955 C68.0968667,36.5596955 68.9248667,36.0445515 69.8274613,35.1926794 L71.0160018,36.4089216 C69.9169748,37.5648544 68.7135153,38.2935946 66.744218,38.2935946 C63.6758937,38.2935946 61.3883261,35.8787003 61.3883261,32.8230173" id="Fill-31" fill="#000000"></path>
                    <polygon id="Fill-33" fill="#000000" points="82.8827586 27.4707975 90.6878396 27.4707975 90.6878396 29.1443871 84.7327045 29.1443871 84.7327045 31.9110869 90.0115153 31.9110869 90.0115153 33.5821636 84.7327045 33.5821636 84.7327045 36.4393277 90.7624342 36.4393277 90.7624342 38.1104043 82.8827586 38.1104043"></polygon>
                </g>
            </g>
        </g>
    </g>
</svg>