<?xml version="1.0" encoding="utf-8"?>
<!-- Generator: Adobe Illustrator 19.1.0, SVG Export Plug-In . SVG Version: 6.00 Build 0)  -->
<svg version="1.1" id="Layer_1" xmlns="http://www.w3.org/2000/svg" xmlns:xlink="http://www.w3.org/1999/xlink" x="0px" y="0px"
	 viewBox="0 0 200 65" style="enable-background:new 0 0 200 65;" xml:space="preserve">
<style type="text/css">
	.st0{fill:#317ddc;}
	.st1{fill:#317ddc;stroke:#317ddc;stroke-width:3.3193;stroke-miterlimit:3.8637;}
	.st2{fill:#ffffff;stroke:#00AEEF;stroke-width:1.282;stroke-miterlimit:3.8637;}
</style>
<g>
	<path class="st0" d="M85.2,27c-0.5,0.3-1.5,0.5-2.6,0.5c-4.1,0-6.4-3.3-6.4-8.9c0-6.9,3.6-9.3,6.8-9.3c1.2,0,2,0.2,2.3,0.5
		l-0.5,2.4c-0.4-0.2-0.8-0.4-1.7-0.4c-1.9,0-3.9,1.8-3.9,6.7c0,4.8,1.8,6.5,4,6.5c0.7,0,1.3-0.2,1.8-0.3L85.2,27z"/>
	<path class="st0" d="M94.8,24.4c0,1,0,2.1,0.2,2.9h-2.5L92.2,26h-0.1c-0.7,1-1.6,1.5-2.7,1.5c-1.9,0-3.3-1.5-3.3-3.8
		c0-3.3,2.8-4.7,5.7-4.7v-0.3c0-1.4-0.5-2.3-1.9-2.3c-0.9,0-1.7,0.3-2.4,0.7L87,15.1c0.6-0.4,2-0.9,3.6-0.9c3.3,0,4.2,2.3,4.2,5
		V24.4z M92,20.9c-1.1,0-3.1,0.3-3.1,2.6c0,1.5,0.8,2,1.4,2c0.7,0,1.4-0.5,1.6-1.5c0.1-0.2,0.1-0.4,0.1-0.7V20.9z"/>
	<path class="st0" d="M97.4,9h2.8v18.4h-2.8V9z"/>
	<path class="st0" d="M111.7,25.8c0,3-0.5,4.5-1.4,5.4c-0.9,0.9-2.2,1.4-3.8,1.4c-1.2,0-2.3-0.2-3.1-0.6l0.6-2.2
		c0.6,0.3,1.4,0.6,2.4,0.6c1.7,0,2.5-1.1,2.5-3.5v-1h-0.1c-0.5,0.9-1.4,1.4-2.4,1.4c-2.6,0-3.9-2.9-3.9-6.3c0-4.5,2-6.8,4.2-6.8
		c1.2,0,1.9,0.7,2.4,1.6h0.1l0.2-1.4h2.5c-0.1,1.1-0.1,2.3-0.1,4.1V25.8z M108.9,19c0-0.3-0.1-0.7-0.1-1c-0.2-0.7-0.6-1.5-1.4-1.5
		c-1.4,0-2,1.8-2,4.3c0,2.8,0.8,4.2,1.9,4.2c0.5,0,1.1-0.3,1.5-1.4c0.1-0.3,0.2-0.7,0.2-1.1V19z"/>
	<path class="st0" d="M122.1,24.4c0,1,0,2.1,0.2,2.9h-2.5l-0.2-1.3h-0.1c-0.7,1-1.6,1.5-2.7,1.5c-1.9,0-3.3-1.5-3.3-3.8
		c0-3.3,2.8-4.7,5.7-4.7v-0.3c0-1.4-0.5-2.3-1.9-2.3c-0.9,0-1.7,0.3-2.4,0.7l-0.5-1.9c0.6-0.4,2-0.9,3.6-0.9c3.3,0,4.2,2.3,4.2,5
		V24.4z M119.3,20.9c-1.1,0-3.1,0.3-3.1,2.6c0,1.5,0.8,2,1.4,2c0.7,0,1.4-0.5,1.6-1.5c0.1-0.2,0.1-0.4,0.1-0.7V20.9z"/>
	<path class="st0" d="M124.8,18c0-1.2-0.1-2.5-0.1-3.6h2.5l0.2,1.9h0.1c0.5-1.3,1.6-2.1,2.6-2.1c0.3,0,0.4,0,0.6,0.1v2.8
		c-0.2,0-0.4,0-0.6,0c-1,0-2,0.8-2.3,2.2c-0.1,0.3-0.1,0.7-0.1,1.2v6.8h-2.8V18z"/>
	<path class="st0" d="M134.5,14.4l1.5,7c0.2,0.9,0.3,1.6,0.5,2.4h0.1c0.1-0.7,0.3-1.5,0.4-2.4l1.3-7.1h2.8l-2.4,9.2
		c-0.7,2.8-1.6,5.6-3,7.3c-1,1.2-2.1,1.8-2.7,2l-0.9-2.4c0.6-0.3,1.2-0.7,1.8-1.3c0.5-0.5,0.9-1.2,1.1-1.8c0.1-0.3,0.2-0.4,0.2-0.6
		c0-0.2,0-0.3-0.1-0.5l-3.4-11.9H134.5z"/>
	<path class="st0" d="M147.3,9.7c1-0.2,2.2-0.3,3.5-0.3c1.6,0,3.2,0.3,4.2,1.2c0.9,0.8,1.3,1.9,1.3,3.2c0,1.7-0.9,3.2-2.6,3.9v0.1
		c2,0.6,3.2,2.3,3.2,4.4c0,1.5-0.5,2.7-1.3,3.5c-1,1.2-2.8,1.7-5.4,1.7c-1.3,0-2.3-0.1-3-0.2V9.7z M150.1,16.9h0.8
		c1.5,0,2.6-1.2,2.6-2.8c0-1.5-0.7-2.6-2.4-2.6c-0.4,0-0.8,0-1,0.1V16.9z M150.1,25.2c0.2,0.1,0.5,0.1,0.9,0.1c1.7,0,3-1,3-3.1
		c0-2.1-1.5-3.2-3.1-3.2h-0.8V25.2z"/>
	<path class="st0" d="M163.3,27.5c-2.7,0-4.6-2.3-4.6-6.6c0-4.7,2.3-6.7,4.7-6.7c2.7,0,4.6,2.4,4.6,6.6
		C168,26.1,165.3,27.5,163.3,27.5L163.3,27.5z M163.4,25.4c1.4,0,1.7-2.5,1.7-4.5c0-1.9-0.3-4.5-1.8-4.5c-1.5,0-1.8,2.6-1.8,4.5
		C161.5,23,161.9,25.4,163.4,25.4L163.4,25.4z"/>
	<path class="st0" d="M177.9,24.4c0,1,0,2.1,0.2,2.9h-2.5l-0.2-1.3h-0.1c-0.7,1-1.6,1.5-2.7,1.5c-1.9,0-3.3-1.5-3.3-3.8
		c0-3.3,2.8-4.7,5.7-4.7v-0.3c0-1.4-0.5-2.3-1.9-2.3c-0.9,0-1.7,0.3-2.4,0.7l-0.5-1.9c0.6-0.4,2-0.9,3.6-0.9c3.3,0,4.2,2.3,4.2,5
		V24.4z M175.1,20.9c-1.1,0-3.1,0.3-3.1,2.6c0,1.5,0.8,2,1.4,2c0.7,0,1.4-0.5,1.6-1.5c0.1-0.2,0.1-0.4,0.1-0.7V20.9z"/>
	<path class="st0" d="M180.6,18c0-1.2-0.1-2.5-0.1-3.6h2.5l0.2,1.9h0.1c0.5-1.3,1.6-2.1,2.6-2.1c0.3,0,0.4,0,0.6,0.1v2.8
		c-0.2,0-0.4,0-0.6,0c-1,0-2,0.8-2.3,2.2c-0.1,0.3-0.1,0.7-0.1,1.2v6.8h-2.8V18z"/>
	<path class="st0" d="M196.2,9v14.9c0,1.1,0.1,2.5,0.1,3.5h-2.4l-0.2-1.5h-0.1c-0.4,0.9-1.4,1.7-2.7,1.7c-2.5,0-3.9-2.7-3.9-6.6
		c0-4.5,2-6.7,4.1-6.7c1.1,0,1.8,0.5,2.3,1.4h0.1V9H196.2z M193.4,19.3c0-0.2,0-0.5-0.1-0.8c-0.1-1-0.7-2-1.5-2
		c-1.4,0-1.9,2-1.9,4.3c0,2.6,0.7,4.3,1.9,4.3c0.5,0,1.2-0.3,1.5-1.6c0.1-0.2,0.1-0.5,0.1-0.8V19.3z"/>
	<path class="st0" d="M80.8,55.5c-2.7,0-4.6-2.3-4.6-6.6c0-4.7,2.3-6.7,4.7-6.7c2.7,0,4.6,2.4,4.6,6.6C85.5,54,82.8,55.5,80.8,55.5
		L80.8,55.5z M80.9,53.3c1.4,0,1.7-2.5,1.7-4.5c0-1.9-0.3-4.5-1.8-4.5c-1.5,0-1.8,2.6-1.8,4.5C79,51,79.4,53.3,80.9,53.3L80.9,53.3z
		"/>
	<path class="st0" d="M88.1,55.3V44.4h-1.7v-2h1.7v-0.6c0-1.4,0.3-2.8,1.2-3.8c0.8-0.8,1.8-1.2,2.9-1.2c0.8,0,1.4,0.1,1.9,0.3
		l-0.4,2.2c-0.3-0.1-0.6-0.2-1.1-0.2c-1.3,0-1.7,1.2-1.7,2.6v0.7h2.3v2h-2.3v10.9H88.1z"/>
	<path class="st0" d="M106.4,47.1h-4.2v5.7h4.8v2.5h-7.7V37.4h7.3v2.5h-4.5v4.9h4.2V47.1z"/>
	<path class="st0" d="M117.4,36.9v14.9c0,1.1,0.1,2.5,0.1,3.5h-2.4l-0.2-1.5h-0.1c-0.4,0.9-1.4,1.7-2.7,1.7c-2.5,0-3.9-2.7-3.9-6.6
		c0-4.5,2-6.7,4.1-6.7c1.1,0,1.8,0.5,2.3,1.4h0.1v-6.6H117.4z M114.6,47.3c0-0.2,0-0.5-0.1-0.8c-0.1-1-0.7-2-1.5-2
		c-1.4,0-1.9,2-1.9,4.3c0,2.6,0.7,4.3,1.9,4.3c0.5,0,1.2-0.3,1.5-1.6c0.1-0.2,0.1-0.5,0.1-0.8V47.3z"/>
	<path class="st0" d="M128.7,51.5c0,1.4,0.1,2.7,0.1,3.8h-2.5l-0.2-1.4h-0.1c-0.5,0.8-1.5,1.6-2.9,1.6c-2.4,0-3.3-1.8-3.3-5.1v-8
		h2.8V50c0,1.9,0.3,3.1,1.5,3.1c0.9,0,1.3-0.7,1.5-1.3c0.1-0.3,0.2-0.7,0.2-1.1v-8.4h2.8V51.5z"/>
	<path class="st0" d="M138.2,55c-0.4,0.2-1.2,0.4-2.2,0.4c-3.1,0-5.1-2.3-5.1-6.5c0-3.9,2.1-6.7,5.6-6.7c0.8,0,1.5,0.2,1.9,0.4
		l-0.4,2.3c-0.3-0.1-0.7-0.3-1.4-0.3c-1.8,0-2.8,2-2.8,4.3c0,2.7,1.1,4.2,2.8,4.2c0.5,0,1-0.1,1.4-0.3L138.2,55z"/>
	<path class="st0" d="M147.8,52.3c0,1,0,2.1,0.2,2.9h-2.5l-0.2-1.3h-0.1c-0.7,1-1.6,1.5-2.7,1.5c-1.9,0-3.3-1.5-3.3-3.8
		c0-3.3,2.8-4.7,5.7-4.7v-0.3c0-1.4-0.5-2.3-1.9-2.3c-0.9,0-1.7,0.3-2.4,0.7l-0.5-1.9c0.6-0.4,2-0.9,3.6-0.9c3.3,0,4.2,2.3,4.2,5
		V52.3z M145,48.8c-1.1,0-3.1,0.3-3.1,2.6c0,1.5,0.8,2,1.4,2c0.7,0,1.4-0.5,1.6-1.5c0.1-0.2,0.1-0.4,0.1-0.7V48.8z"/>
	<path class="st0" d="M153.6,39.2v3.2h2.5v2h-2.5v6.7c0,1.6,0.6,2,1.3,2c0.3,0,0.6,0,0.9-0.1l0.1,2.2c-0.4,0.1-1.1,0.2-1.9,0.2
		c-0.9,0-1.7-0.2-2.3-0.8c-0.6-0.6-1-1.6-1-3.5v-6.7h-1.5v-2h1.5v-2.2L153.6,39.2z"/>
	<path class="st0" d="M159.1,40.6c-0.8,0-1.5-0.7-1.5-1.6c0-1,0.7-1.6,1.5-1.6c0.9,0,1.5,0.6,1.5,1.6C160.7,40,160,40.6,159.1,40.6
		L159.1,40.6z M157.7,55.3V42.4h2.8v12.9H157.7z"/>
	<path class="st0" d="M167.3,55.5c-2.7,0-4.6-2.3-4.6-6.6c0-4.7,2.3-6.7,4.7-6.7c2.7,0,4.6,2.4,4.6,6.6
		C172,54,169.3,55.5,167.3,55.5L167.3,55.5z M167.4,53.3c1.4,0,1.7-2.5,1.7-4.5c0-1.9-0.3-4.5-1.8-4.5c-1.5,0-1.8,2.6-1.8,4.5
		C165.5,51,165.9,53.3,167.4,53.3L167.4,53.3z"/>
	<path class="st0" d="M174.1,46c0-1.5-0.1-2.5-0.1-3.6h2.5l0.1,1.5h0.1c0.6-1,1.7-1.7,3.1-1.7c2.2,0,3.3,1.7,3.3,4.7v8.5h-2.8v-8.2
		c0-1.3-0.3-2.5-1.5-2.5c-0.7,0-1.3,0.5-1.6,1.6c-0.1,0.3-0.1,0.7-0.1,1.2v8h-2.8V46z"/>
	<g>
		<path class="st1" d="M65.3,59.4c0,1.7-1.4,3.1-3.1,3.1H8.4c-1.7,0-3.1-1.4-3.1-3.1V5.6c0-1.7,1.4-3.1,3.1-3.1h53.8
			c1.7,0,3.1,1.4,3.1,3.1V59.4z"/>
		<g>
			<g>
				<path class="st2" d="M65.3,59.4c0,1.7-1.4,3.1-3.1,3.1H8.4c-1.7,0-3.1-1.4-3.1-3.1V5.6c0-1.7,1.4-3.1,3.1-3.1h53.8
					c1.7,0,3.1,1.4,3.1,3.1V59.4z"/>
			</g>
			<path d="M55,52c-0.5-0.4-0.5-0.8-0.5-1.2c-0.1-0.3,0-2.5,0.1-3c0-0.5-0.4-3.7-0.4-3.9c0-0.2-0.4-1.9-0.5-2.2
				c-0.1-0.2-0.4-1.5-0.4-1.9c0-0.3,0.1-1.3,0.1-1.3c0-0.1,0.5-3.1,0.5-3.1s0.4-2.4,0.4-3.1c0-0.7-0.1-1.5-0.1-1.5
				c0-0.3-0.1-0.8-0.1-1.2c0-0.1-0.2-2-0.2-2c0-0.4,0.1-0.8,0.1-0.8l0.4-3c0.1-1.1-0.1-2.5-0.1-2.5c0-0.1-0.3-1.6-0.3-1.6
				c-0.1-0.6-0.6-1.7-0.6-1.8c-0.1-0.2,0.2-0.3,0.3-0.4c0.1,0,0.2-0.1,0.5-0.3c0.3-0.2,0.4-0.9,0.4-0.9c0.1-0.5,0-1.4-0.3-2.1
				c-0.3-0.7-0.9-0.8-1.2-0.9c-0.3,0-0.7,0.2-0.8,0.3c-0.2,0.1-0.3,0.3-0.5,0.6c-0.2,0.4-0.4,1-0.4,1.8c0,0.8,0.4,0.9,0.4,0.9
				c0.1,0.1,0.7,0.7,0.7,1.1c0,0.5-0.6,0.5-0.6,0.5c-0.2,0.1-0.8-0.1-1.1-0.2c-0.4-0.2-1.5-1.2-1.8-1.5c-0.3-0.3-0.5-0.6-0.9-0.9
				c-0.4-0.3-1.4-0.6-1.4-0.6c-0.3-0.1-0.7-0.4-1.1-0.8c-0.3-0.4-0.1-1.5-0.4-2.1c-0.3-0.6-0.8-1.3-1.2-1.4c-0.4-0.1-1-0.1-1.4,0.1
				c-0.4,0.2-0.7,0.5-1,0.8c-0.3,0.3-0.1,1.1,0,1.3c0.1,0.2,0.8,1.8,1.1,1.7c0.5-0.2,0.6,0.1,0.6,0.1l-0.6,0.4l-1,0.7
				c-0.3,0.2-0.6,0.5-0.7,0.7c-0.1,0.2,0,0.7-0.1,0.7c0-0.1-0.4-0.2-0.7-0.2c-0.3-0.1-0.6-0.1-0.6-0.1l-0.5-0.1l0.5-0.1
				c0-0.2-0.8-0.1-1-0.1c-0.2,0-0.6,0.1-0.7,0.1c-0.1,0.1-0.7,0.3-0.7,0.3c-0.2,0.1-1.3,0.8-1.3,0.8s-0.9,0.7-0.9,0.7
				c0,0-1-0.7-1-0.7s-0.5-0.4-0.7-0.7c-0.2-0.3-0.2-0.5-0.2-0.7c0-0.2,0.4-0.3,0.4-0.3c0.4-0.2,0.6-0.3,1-0.6
				c0.4-0.3,0.6-0.8,0.6-0.8c0.3-0.5,0.3-1.3,0.3-1.5c0-0.3-0.1-0.5-0.1-0.5c-0.2-0.3-0.4-0.5-0.8-0.7c-0.4-0.2-1.3-0.1-1.6,0
				c-0.2,0.1-0.5,0.2-0.7,0.5c-0.2,0.3-0.3,0.8-0.3,1.3c-0.1,0.6,0.2,1.6,0.2,1.8C32,16,31.1,17.4,31,17.7c0,0.1-0.1,0.6-0.1,0.8
				c0,0.3-0.3,1.1-0.6,1.5c-0.3,0.4-0.5,0.4-0.7,0.4c-0.2,0-1.1-0.1-1.1-0.1l0,0c0,0-0.7-0.1-1-0.3c-0.2-0.1-0.4-0.2-0.6-0.4
				c-0.3-0.3-0.2-0.6-0.2-0.7c0.1-0.3,0.4-0.6,0.4-0.6s0.4-0.4,0.4-0.9c0.1-0.5,0-0.5-0.1-0.8c0-0.3-0.3-0.7-0.3-0.7
				s-0.2-0.3-0.4-0.4c-0.2-0.1-0.6-0.1-0.6-0.1c-0.3,0-0.7,0.2-0.9,0.5C25.1,16.4,25,17,25,17c0,0.4,0,0.6,0,1
				c0.1,0.4,0.4,0.6,0.4,0.7c0.1,0.1,0.1,0.1,0.2,0.4c0.1,0.3,0,0.6,0,0.6c0,0.1-0.1,0.4-0.3,0.5c-0.3,0.2-0.7,0-1-0.2
				c-0.4-0.2-1.2-1-1.2-1s-1-1.1-1.2-1.3c-0.2-0.3-0.2-0.2-0.2-0.4c0-0.3,0.1-0.4,0.2-0.7c0.2-0.4,0.1-0.8,0.1-1
				c0-0.2-0.1-0.4-0.2-0.7c-0.1-0.3-0.3-0.5-0.4-0.6c-0.1-0.1-0.3-0.2-0.7-0.2c-0.5,0-0.9,0.4-1.1,0.7c-0.2,0.3-0.4,0.8-0.4,1.5
				c0,0.6,0.4,0.9,0.4,1.1c0,0.1,0.1,0.4-0.2,0.7c-0.6,0.6-1,1.7-1.1,1.9c-0.1,0.2-0.2,0.5-0.2,0.8c0.1,0.5-0.3,3.1-0.5,3.5
				c-0.3,0.6-0.9,4-1,4.4c-0.1,0.4-0.8,2.1-0.5,2.8c0.2,0.7,0.8,1.7,0.8,2c0,0.3-0.2,2.2-0.2,2.5c0,0.3,0,1.3,0,1.3
				s-0.1,2.2-0.1,2.4c0,0.2-0.2,1-0.4,1.4c-0.2,0.4-0.3,2.3-0.3,2.3s-0.2,1.8-0.2,2.2c0,0.4,0,3.2,0,3.7c0,0.6-0.2,1.3-0.2,1.3
				c-0.1,0.7-0.8,1.8-0.8,1.9c-0.1,0.1,0,0.4,0,0.4l40.8,0l0-0.4C55.4,52.3,55.1,52.1,55,52z M24.5,23.3c0.3,1.6,0.3,1.5,0.5,2
				c0.3,0.7,0.7,2,0.7,2.1c0,0.1,0.3,1.6,0.1,2.2c-0.1,0.2-0.2,0.4-0.2,0.4s-2.2-2.5-2.4-2.9c-0.2-0.4-0.3-0.5-0.2-0.7
				c0,0,0.6-1.3,0.8-1.6C24,24.5,24.5,23.3,24.5,23.3z M26.9,49.7c0,0.4-0.4,2.2-2.5,2.5l-3.9,0c0,0-1.2-0.1-1.9-0.7
				c-0.7-0.6-1.1-0.9-1.1-1.2c0-0.4,0-0.7,0.1-1.8c0.1-1.1,0.4-2.7,0.5-3.3c0.2-0.6,1-3.4,1-3.4s0.7-1.7,0.7-1.8
				c0-0.2-0.1-1.5-0.1-1.6c0-0.1-0.2-1.1-0.3-1.6c-0.1-0.5-0.5-1.5-0.5-2.4c0-0.8,0.1-2.2,0.2-2.9c0.1-0.7,0.3-2.2,0.1-3.3
				c0-0.1-0.1-0.3,0-0.4c0,0,0.4-2.4,0.4-2.5c0-0.2,0-0.4,0.1-0.8c0.1-0.3,0.4-1.8,1.1-2.7c0.7-1,0.9-1.4,1-1.7
				c0.1-0.2,0.3-0.2,0.3-0.2c0.1,0,0.4,0,0.8,0.5c0.4,0.5,0.7,0.8,0.7,0.8l-0.2,0.6c-1.3,3-1.4,3.1-1.3,3c-0.1,0.2-0.1,0.3-0.2,0.6
				c-0.1,0.2-0.6,2.2,1.7,4.4c0,0,0.7,0.7,0.7,0.7c0,0,0.3,0.4,0.3,0.4c0,0,0.3,1.2,0.3,1.5c0.1,0.4,0.3,0.4,0.5,0.5
				c0.1,0,0.1,1.3,0.1,1.3v3.3l0,2.3c0,0,0,0.4,0.1,0.6c0.1,0.2,0.4,2.3,0.5,2.5c0,0,0.1,0.8,0.1,1c0,0.2,0.2,1.3,0.2,1.3l0.4,2.6
				c0,0,0,0.1,0,0.2C26.9,48,27,49.3,26.9,49.7z M29,48.3c-0.1,0.6-0.8,1.6-0.8,1.6c-0.2-0.2-0.2-1.3-0.2-1.3l-0.1-3.3
				c0-0.8-0.5-4-0.5-4c-0.1-0.2-0.2-0.8-0.3-0.9c-0.1-0.1-0.1-0.5,0-0.8c0-0.2,0.2-2.4,0.3-2.7c0.1-0.3,0.4-2.7,0.4-2.7l0.4,1.5
				l0.6,3.5l0.4,1.9c0,0,0.3,2.2,0.3,2.5C29.5,44,29.1,47.7,29,48.3z M29.3,26.8c0,0.2-0.4,1.6-0.7,2c-0.1,0.2-0.2-1.4-0.2-1.5
				c0-0.1,0.1-1.8,0.1-2.4c0-0.1,0-1.3,0-1.3c0.9,0.1,0.2,0.1,1.2,0.1C29.8,23.7,29.3,26.6,29.3,26.8z M29.6,23.1
				c-0.5-0.1-1.3-0.5-1.3-0.5s0.2-0.9,0.5-1.1c0.2-0.1,0.5-0.1,0.5-0.1c0.2,0.1,0.5,0.2,0.5,0.4C29.9,21.9,29.9,23.1,29.6,23.1z
				 M30.3,39.2c0-0.5,0-2,0.2-2.4c0,0,0.5,2,0.6,2.2c0.1,0.2,0.2,2.2,0.1,2.3C31.1,41.4,30.3,39.6,30.3,39.2z M31.3,49.7
				c-0.3,0.4-0.7,0.4-0.7,0.4l0.4-4.3c0.1,1.4,0.2,1.3,0.4,1.9C31.7,48.6,31.6,49.2,31.3,49.7z M41.2,19.4c0,0,0.5,0.5,0.8,1.7
				c0.1,0.5,0.1,2.2,0.1,2.2s-0.3,0-0.4,0c-0.1,0-0.1-0.5-0.2-0.7c-0.1-0.4-0.7-0.5-0.7-0.5C40.8,22.1,41.2,19.4,41.2,19.4z
				 M40.8,24.8l0,1.3c0,0-0.2-0.1-0.4-0.2c-0.2-0.1-0.2-0.5-0.2-0.8C40.3,24.9,40.8,24.8,40.8,24.8z M34.3,19.5l-0.4,1.1
				c0,0-0.2-1-0.2-1.7C33.6,18.8,34.3,19.5,34.3,19.5z M40.6,51.6c-2,0.6-4.4,0.3-5.9-0.3c-1.5-0.6-1.8-2.1-1.8-2.4
				c0,0,0.2-8,0.2-8.3c0-0.3-0.1-2.2-0.1-2.4c0-0.1-0.3-4.1-0.3-4.1s-0.1-3.4-0.2-3.6c-0.1-0.2-0.5-1-0.5-1.2c0-0.2,0.1-2.1,0.1-2.2
				c0-0.1,0.5-2.2,0.5-2.2l0.7-3.1c0,0,1.1,0.7,1.3,0.3c0.2-0.3,1.1-3.4,2-3.9c0.1-0.1,1-0.6,1.9-0.5c0.9,0.1,1.9,0.2,2.1,0.1
				c0.1,0-0.9,2.2-0.9,2.4c0,0.2-0.7,2.3-0.7,2.9c0,0.6,0.1,3.3,0.5,3.9c0.4,0.6,1.4,2.1,1.4,2.1s0,3.1-0.1,4.1c0,1,0.2,2.5,0.4,3.3
				c0.2,0.8,0.6,3.7,0.6,3.7s0.8,8.7,0.8,8.8C42.8,49.2,42.7,50.9,40.6,51.6z M43.5,39.8c0,0-0.3-3.1-0.3-3.3c0-1.6,0.5-2.6,0.5-2.6
				s0.1,0.2,0.2,0.5C44,34.8,43.5,39.8,43.5,39.8z M48.7,18c0.4,0.4,1.2,1.1,1.2,1.1s-0.1,0.3-0.7,0.6c-0.5,0.3-0.8,0.5-1,0.5
				c-0.2,0-1.1-3.1-1.1-3.1S48.3,17.6,48.7,18z M45.6,19.7c0.1-0.2,0.4-1.3,0.4-1.3s1.1,1.9,0.7,2.1c-0.3,0.2-1.1,0-1.1,0
				S45.5,20,45.6,19.7z M45.4,21.5c0.1,0.1,1.5,0.5,1.6,0.5c0,0,0.1,0.1,0.1,0.3c0,0.2-0.1,1.9-0.1,1.9s-0.5,2.5-0.7,3.2
				c-0.2,0.7-0.1,0.4-0.4,0.5c-0.3,0.1-0.4,0.6-0.4,0.6c-0.2-0.3-0.3-3.9-0.3-3.9S45.2,21.4,45.4,21.5z M50.9,30.9
				c0,0.2-0.7,2.4-0.8,2.7c0,0-0.2,1.1-0.2,1.9c0,0.8-0.2,5-0.2,5s0,1.9,0.1,2.3c0.1,0.4,0.6,6.7,0.6,6.8c0,0.1-0.1,0.4-0.3,0.7
				c-0.3,0.3-1.8,1.6-3.5,1.7c-0.9,0-1.4-0.8-1.4-1.3c0,0-0.1-1.7,0-2.9c0.1-1.1,0.6-4.3,0.3-5c-0.2-0.8-0.3-1-0.4-1.6
				c-0.1-0.6,0-1.4,0-1.5c0,0,0.4-3.3,0.5-4.1c0.1-0.8,0.2-2,0.2-3c0-1,0-1.9,0-1.9s0.2-0.9,0.5-1.3c0.3-0.4,1.1-2.3,1.3-2.9
				c0.2-0.6,0.7-2,0.8-2.2c0.1-0.2,0.3-2.6,0.3-2.7c0-0.1,2-1,2-1c0.1,0,0.4-0.1,0.6,0.1c0.1,0.2,0.1,1,0.1,1s0.1,3.5,0.1,3.7
				c0,0.7,0.1,1.3,0.1,1.4c0.1,0.1,0,0.3,0,0.4c0,0.1-0.2,1.2-0.2,1.3C51.2,28.6,51.1,29.9,50.9,30.9z M53,48.5
				c0,0.3-0.2,2.2-0.2,2.3c0,0.3-0.2,1.3-0.4,1.2c-0.2-0.1-0.5-0.4-0.8-1.3c-0.3-0.9-0.3-2.1-0.3-2.8c0-0.6,0.1-3.2,0.2-3.7
				c0.1-0.5-0.3-1.5-0.3-1.5s0-0.5,0.1-0.6c0,0,0.3-5.1,0.3-5.1s0.4,4.1,0.4,4.4c0,0.3,0.1,0.5,0.2,0.8c0.1,0.3,0.8,4.2,0.8,5.1
				C53.1,48.1,53.1,48.1,53,48.5z"/>
		</g>
	</g>
</g>
</svg>
