<?xml version="1.0" encoding="UTF-8" standalone="no"?>
<svg xmlns:rdf="http://www.w3.org/1999/02/22-rdf-syntax-ns#" xmlns="http://www.w3.org/2000/svg" xml:space="preserve" viewBox="0 0 136 56" version="1.1" xmlns:cc="http://creativecommons.org/ns#" xmlns:dc="http://purl.org/dc/elements/1.1/"><g id="logo" transform="matrix(1.25,0,0,-1.25,0,56)"><path d="m0 22.92 6.99-11.84c-0.27 7.38 5.64 13.39 12.11 15.68-9.16 4.36-16.94-0.22-19.1-3.84z" fill-rule="evenodd"/><path d="m8.48 29.86c1.01 0.15 2.06 0.24 3.13 0.24 10.7 0 19.42-8.49 19.8-19.1l10.63 11.79c-4.31 7.01-17.76 16.45-33.56 7.07z" fill-rule="evenodd" fill="currentColor"/><g transform="matrix(.0733 0 0 -.0733 45.39 15.29)"><path d="m104.3-192.6h-78.98v192.6h78.18c58.3 0 100.4-40.73 100.4-96.32 0-55.88-41.8-96.28-99.6-96.28zm-0.6 29.1c38 0 67.5 28.1 67.5 67.46 0 39.08-28.7 66.87-66.1 66.87h-47.31v-134.3h45.91z"/><path d="m404.3-192.6h-32.5v112.8c0 32.74-19.6 52.01-50.9 52.01-31.7 0-51.8-19.54-51.8-52.01v-112.8h-32.4v112.8c0 50.35 31.9 81.18 83.9 81.18s83.7-30.83 83.7-81.18v-112.8z"/><path d="m583.6-41c-13.7 8.25-29.9 13.21-44.3 13.21-39.3 0-70.4-30-70.4-68.53 0-38.28 30.8-68.28 70.2-68.28 20.1 0 40.7 8.3 55.6 22.1l18.4-24c-19-16.5-46.5-27-74-27-58.4 0-103.2 42.1-103.2 97.18 0 55.04 44.3 97.7 101.2 97.7 26.5 0 55.4-10.18 74.9-25.05v-70.99h-28.4v53.66z"/><path d="m746.3-193.5c-57.5 0-102.1 41.9-102.1 97.18 0 55.04 44.6 97.7 102.1 97.7s102.1-42.66 102.1-97.7c0-55.08-44.6-97.18-102.1-97.18zm0.3 29.2c37.7 0 68.5 29.7 68.5 67.98 0 38.26-30.8 68.53-68.5 68.53s-69.4-30.27-69.4-68.53c0-38.28 31.4-67.98 69.4-67.98z"/></g></g></svg>
