<svg xmlns="http://www.w3.org/2000/svg" xmlns:xlink="http://www.w3.org/1999/xlink" width="300" zoomAndPan="magnify" viewBox="0 0 224.87999 112.499997" height="150" preserveAspectRatio="xMidYMid meet" version="1.0"><defs><g/><clipPath id="15ef8ca5ac"><path d="M 126.542969 16.859375 L 151.75 16.859375 L 151.75 47 L 126.542969 47 Z M 126.542969 16.859375 " clip-rule="nonzero"/></clipPath><clipPath id="283029a7b3"><path d="M 126.542969 47 L 137 47 L 137 47.316406 L 126.542969 47.316406 Z M 126.542969 47 " clip-rule="nonzero"/></clipPath></defs><g fill="#000000" fill-opacity="1"><g transform="translate(19.067485, 78.02466)"><g><path d="M 32.21875 -14.265625 L 32.15625 -13.34375 L 7.484375 -13.34375 C 7.578125 -11.570312 8.085938 -9.953125 9.015625 -8.484375 C 9.953125 -7.023438 11.175781 -5.875 12.6875 -5.03125 C 14.195312 -4.195312 15.863281 -3.78125 17.6875 -3.78125 C 19.78125 -3.78125 21.675781 -4.335938 23.375 -5.453125 C 25.082031 -6.566406 26.304688 -8.035156 27.046875 -9.859375 L 31.671875 -9.859375 C 31.054688 -7.847656 30.070312 -6.0625 28.71875 -4.5 C 27.375 -2.945312 25.757812 -1.710938 23.875 -0.796875 C 21.988281 0.109375 19.925781 0.5625 17.6875 0.5625 C 15.03125 0.5625 12.59375 -0.0859375 10.375 -1.390625 C 8.164062 -2.703125 6.40625 -4.460938 5.09375 -6.671875 C 3.789062 -8.890625 3.140625 -11.328125 3.140625 -13.984375 C 3.140625 -16.679688 3.789062 -19.125 5.09375 -21.3125 C 6.40625 -23.507812 8.164062 -25.257812 10.375 -26.5625 C 12.59375 -27.863281 15.03125 -28.515625 17.6875 -28.515625 C 20.34375 -28.515625 22.753906 -27.882812 24.921875 -26.625 C 27.085938 -25.375 28.832031 -23.675781 30.15625 -21.53125 C 31.488281 -19.382812 32.175781 -16.960938 32.21875 -14.265625 Z M 17.6875 -24.1875 C 15.445312 -24.1875 13.453125 -23.546875 11.703125 -22.265625 C 9.960938 -20.984375 8.738281 -19.316406 8.03125 -17.265625 L 27.265625 -17.265625 C 26.609375 -19.316406 25.40625 -20.984375 23.65625 -22.265625 C 21.914062 -23.546875 19.925781 -24.1875 17.6875 -24.1875 Z M 17.6875 -24.1875 "/></g></g></g><g fill="#000000" fill-opacity="1"><g transform="translate(53.043081, 78.02466)"><g><path d="M 2.796875 -12.4375 L 2.796875 -16.640625 L 22.375 -16.640625 L 22.375 -12.4375 Z M 2.796875 -12.4375 "/></g></g></g><g fill="#000000" fill-opacity="1"><g transform="translate(77.161535, 78.02466)"><g><path d="M 18.734375 -28.515625 C 19.566406 -28.515625 20.289062 -28.445312 20.90625 -28.3125 L 20.90625 -23.90625 C 20.34375 -24.09375 19.617188 -24.1875 18.734375 -24.1875 C 17.054688 -24.1875 15.503906 -23.789062 14.078125 -23 C 12.660156 -22.207031 11.53125 -21.132812 10.6875 -19.78125 C 9.851562 -18.425781 9.4375 -16.890625 9.4375 -15.171875 L 9.4375 0 L 5.109375 0 L 5.109375 -27.96875 L 9.4375 -27.96875 L 9.4375 -23.96875 C 10.507812 -25.375 11.828125 -26.484375 13.390625 -27.296875 C 14.953125 -28.109375 16.734375 -28.515625 18.734375 -28.515625 Z M 18.734375 -28.515625 "/></g></g></g><g fill="#000000" fill-opacity="1"><g transform="translate(97.295201, 78.02466)"><g><path d="M 17.6875 0.5625 C 15.03125 0.5625 12.59375 -0.0859375 10.375 -1.390625 C 8.164062 -2.703125 6.40625 -4.460938 5.09375 -6.671875 C 3.789062 -8.890625 3.140625 -11.328125 3.140625 -13.984375 C 3.140625 -16.679688 3.789062 -19.125 5.09375 -21.3125 C 6.40625 -23.507812 8.164062 -25.257812 10.375 -26.5625 C 12.59375 -27.863281 15.03125 -28.515625 17.6875 -28.515625 C 20.382812 -28.515625 22.828125 -27.863281 25.015625 -26.5625 C 27.210938 -25.257812 28.960938 -23.507812 30.265625 -21.3125 C 31.566406 -19.125 32.21875 -16.679688 32.21875 -13.984375 C 32.21875 -11.328125 31.566406 -8.890625 30.265625 -6.671875 C 28.960938 -4.460938 27.210938 -2.703125 25.015625 -1.390625 C 22.828125 -0.0859375 20.382812 0.5625 17.6875 0.5625 Z M 17.6875 -3.78125 C 19.550781 -3.78125 21.25 -4.234375 22.78125 -5.140625 C 24.320312 -6.046875 25.554688 -7.28125 26.484375 -8.84375 C 27.421875 -10.40625 27.890625 -12.117188 27.890625 -13.984375 C 27.890625 -15.890625 27.421875 -17.609375 26.484375 -19.140625 C 25.554688 -20.679688 24.320312 -21.90625 22.78125 -22.8125 C 21.25 -23.726562 19.550781 -24.1875 17.6875 -24.1875 C 15.820312 -24.1875 14.109375 -23.726562 12.546875 -22.8125 C 10.984375 -21.90625 9.75 -20.679688 8.84375 -19.140625 C 7.9375 -17.609375 7.484375 -15.890625 7.484375 -13.984375 C 7.484375 -12.117188 7.9375 -10.40625 8.84375 -8.84375 C 9.75 -7.28125 10.984375 -6.046875 12.546875 -5.140625 C 14.109375 -4.234375 15.820312 -3.78125 17.6875 -3.78125 Z M 17.6875 -3.78125 "/></g></g></g><g fill="#000000" fill-opacity="1"><g transform="translate(131.550433, 78.02466)"><g><path d="M 7.828125 -33.203125 C 7.035156 -33.203125 6.335938 -33.492188 5.734375 -34.078125 C 5.128906 -34.660156 4.828125 -35.347656 4.828125 -36.140625 C 4.828125 -37.023438 5.128906 -37.742188 5.734375 -38.296875 C 6.335938 -38.859375 7.035156 -39.140625 7.828125 -39.140625 C 8.617188 -39.140625 9.316406 -38.859375 9.921875 -38.296875 C 10.523438 -37.742188 10.828125 -37.023438 10.828125 -36.140625 C 10.828125 -35.347656 10.523438 -34.660156 9.921875 -34.078125 C 9.316406 -33.492188 8.617188 -33.203125 7.828125 -33.203125 Z M 2.03125 16.78125 C 1.28125 16.78125 0.566406 16.6875 -0.109375 16.5 C -0.785156 16.3125 -1.304688 16.101562 -1.671875 15.875 L -1.671875 12.515625 L 1.46875 12.578125 C 2.582031 12.578125 3.554688 12.191406 4.390625 11.421875 C 5.234375 10.660156 5.65625 9.625 5.65625 8.3125 L 5.65625 -27.96875 L 10 -27.96875 L 10 8.875 C 10 10.320312 9.632812 11.648438 8.90625 12.859375 C 8.1875 14.066406 7.21875 15.019531 6 15.71875 C 4.789062 16.425781 3.46875 16.78125 2.03125 16.78125 Z M 2.03125 16.78125 "/></g></g></g><g fill="#000000" fill-opacity="1"><g transform="translate(146.091393, 78.02466)"><g><path d="M 35.09375 -3.640625 L 36.84375 -3.640625 L 36.84375 0 C 36.238281 0.375 35.535156 0.5625 34.734375 0.5625 C 33.109375 0.5625 31.75 0.117188 30.65625 -0.765625 C 29.5625 -1.648438 28.78125 -2.816406 28.3125 -4.265625 C 27.007812 -2.816406 25.4375 -1.648438 23.59375 -0.765625 C 21.75 0.117188 19.78125 0.5625 17.6875 0.5625 C 15.03125 0.5625 12.59375 -0.0859375 10.375 -1.390625 C 8.164062 -2.703125 6.40625 -4.460938 5.09375 -6.671875 C 3.789062 -8.890625 3.140625 -11.328125 3.140625 -13.984375 C 3.140625 -16.679688 3.789062 -19.125 5.09375 -21.3125 C 6.40625 -23.507812 8.164062 -25.257812 10.375 -26.5625 C 12.59375 -27.863281 15.03125 -28.515625 17.6875 -28.515625 C 19.6875 -28.515625 21.5625 -28.140625 23.3125 -27.390625 C 25.0625 -26.648438 26.585938 -25.628906 27.890625 -24.328125 L 27.890625 -27.96875 L 32.21875 -27.96875 L 32.21875 -7.265625 C 32.21875 -5.960938 32.507812 -5.03125 33.09375 -4.46875 C 33.675781 -3.914062 34.34375 -3.640625 35.09375 -3.640625 Z M 17.6875 -3.78125 C 19.550781 -3.78125 21.25 -4.234375 22.78125 -5.140625 C 24.320312 -6.046875 25.554688 -7.28125 26.484375 -8.84375 C 27.421875 -10.40625 27.890625 -12.117188 27.890625 -13.984375 C 27.890625 -15.890625 27.421875 -17.609375 26.484375 -19.140625 C 25.554688 -20.679688 24.320312 -21.90625 22.78125 -22.8125 C 21.25 -23.726562 19.550781 -24.1875 17.6875 -24.1875 C 15.820312 -24.1875 14.109375 -23.726562 12.546875 -22.8125 C 10.984375 -21.90625 9.75 -20.679688 8.84375 -19.140625 C 7.9375 -17.609375 7.484375 -15.890625 7.484375 -13.984375 C 7.484375 -12.117188 7.9375 -10.40625 8.84375 -8.84375 C 9.75 -7.28125 10.984375 -6.046875 12.546875 -5.140625 C 14.109375 -4.234375 15.820312 -3.78125 17.6875 -3.78125 Z M 17.6875 -3.78125 "/></g></g></g><g fill="#000000" fill-opacity="1"><g transform="translate(182.653606, 78.02466)"><g><path d="M 12.015625 0.5625 C 9.785156 0.5625 7.738281 -0.03125 5.875 -1.21875 C 4.007812 -2.40625 2.820312 -3.835938 2.3125 -5.515625 L 6.5 -7.203125 C 6.726562 -6.171875 7.378906 -5.328125 8.453125 -4.671875 C 9.523438 -4.023438 10.710938 -3.703125 12.015625 -3.703125 C 13.273438 -3.703125 14.359375 -4.039062 15.265625 -4.71875 C 16.179688 -5.394531 16.640625 -6.335938 16.640625 -7.546875 C 16.640625 -8.671875 16.195312 -9.535156 15.3125 -10.140625 C 14.425781 -10.742188 13.144531 -11.367188 11.46875 -12.015625 C 9 -12.953125 7.0625 -14.0625 5.65625 -15.34375 C 4.257812 -16.625 3.5625 -18.359375 3.5625 -20.546875 C 3.5625 -22.273438 3.945312 -23.722656 4.71875 -24.890625 C 5.488281 -26.054688 6.5 -26.953125 7.75 -27.578125 C 9.007812 -28.203125 10.316406 -28.515625 11.671875 -28.515625 C 13.441406 -28.515625 15.117188 -28.0625 16.703125 -27.15625 C 18.285156 -26.25 19.335938 -25.164062 19.859375 -23.90625 L 16.078125 -21.953125 C 15.703125 -22.691406 15.140625 -23.25 14.390625 -23.625 C 13.648438 -24 12.816406 -24.1875 11.890625 -24.1875 C 10.722656 -24.1875 9.773438 -23.90625 9.046875 -23.34375 C 8.328125 -22.789062 7.96875 -21.90625 7.96875 -20.6875 C 7.96875 -19.476562 8.398438 -18.582031 9.265625 -18 C 10.128906 -17.414062 11.421875 -16.75 13.140625 -16 C 14.347656 -15.539062 15.554688 -14.972656 16.765625 -14.296875 C 17.984375 -13.617188 18.988281 -12.742188 19.78125 -11.671875 C 20.570312 -10.597656 20.96875 -9.222656 20.96875 -7.546875 C 20.96875 -5.128906 20.09375 -3.171875 18.34375 -1.671875 C 16.601562 -0.179688 14.492188 0.5625 12.015625 0.5625 Z M 12.015625 0.5625 "/></g></g></g><g clip-path="url(#15ef8ca5ac)"><path fill="#ff3131" d="M 151.625 21.9375 C 151.625 19.132812 149.351562 16.859375 146.546875 16.859375 C 143.742188 16.859375 141.472656 19.132812 141.472656 21.9375 C 141.472656 22.023438 141.472656 22.105469 141.476562 22.191406 C 140.675781 22.023438 139.847656 21.9375 138.996094 21.9375 C 132.25 21.9375 126.78125 27.40625 126.78125 34.152344 C 126.78125 40.894531 132.25 46.363281 138.996094 46.363281 C 145.742188 46.363281 151.207031 40.894531 151.207031 34.152344 C 151.207031 31.292969 150.226562 28.667969 148.585938 26.585938 C 150.375 25.800781 151.625 24.015625 151.625 21.9375 Z M 138.996094 39.699219 C 135.929688 39.699219 133.445312 37.214844 133.445312 34.152344 C 133.445312 31.085938 135.929688 28.601562 138.996094 28.601562 C 142.058594 28.601562 144.542969 31.085938 144.542969 34.152344 C 144.542969 37.214844 142.058594 39.699219 138.996094 39.699219 Z M 138.996094 39.699219 " fill-opacity="1" fill-rule="nonzero"/></g><g clip-path="url(#283029a7b3)"><path fill="#ff3131" d="M 136.800781 51.253906 C 136.878906 51.578125 136.921875 51.90625 136.933594 52.238281 C 136.945312 52.574219 136.925781 52.90625 136.871094 53.234375 C 136.816406 53.5625 136.734375 53.882812 136.617188 54.195312 C 136.5 54.507812 136.355469 54.804688 136.179688 55.089844 C 136.003906 55.371094 135.800781 55.636719 135.574219 55.878906 C 135.347656 56.125 135.097656 56.34375 134.828125 56.539062 C 134.558594 56.734375 134.273438 56.898438 133.96875 57.039062 C 133.664062 57.175781 133.351562 57.285156 133.027344 57.359375 C 132.703125 57.4375 132.375 57.480469 132.039062 57.492188 C 131.707031 57.503906 131.375 57.484375 131.046875 57.429688 C 130.71875 57.378906 130.398438 57.292969 130.085938 57.175781 C 129.773438 57.058594 129.476562 56.914062 129.191406 56.738281 C 128.910156 56.5625 128.644531 56.363281 128.402344 56.136719 C 128.15625 55.910156 127.9375 55.660156 127.742188 55.390625 C 127.546875 55.117188 127.382812 54.832031 127.242188 54.527344 C 127.105469 54.226562 126.996094 53.910156 126.917969 53.585938 C 126.84375 53.261719 126.800781 52.933594 126.789062 52.601562 C 126.777344 52.269531 126.796875 51.9375 126.847656 51.609375 C 126.902344 51.277344 126.988281 50.957031 127.105469 50.644531 C 127.222656 50.332031 127.367188 50.035156 127.542969 49.753906 C 127.71875 49.46875 127.917969 49.203125 128.144531 48.960938 C 128.371094 48.71875 128.621094 48.496094 128.890625 48.300781 C 129.164062 48.109375 129.449219 47.941406 129.753906 47.800781 C 130.054688 47.664062 130.371094 47.554688 130.695312 47.480469 C 131.019531 47.402344 131.347656 47.359375 131.679688 47.347656 C 132.011719 47.335938 132.34375 47.355469 132.671875 47.410156 C 133.003906 47.464844 133.324219 47.546875 133.636719 47.664062 C 133.949219 47.78125 134.246094 47.925781 134.527344 48.101562 C 134.8125 48.277344 135.078125 48.480469 135.320312 48.707031 C 135.5625 48.933594 135.785156 49.183594 135.980469 49.453125 C 136.171875 49.722656 136.339844 50.007812 136.480469 50.3125 C 136.617188 50.617188 136.722656 50.929688 136.800781 51.253906 Z M 136.800781 51.253906 " fill-opacity="1" fill-rule="nonzero"/></g><g fill="#000000" fill-opacity="1"><g transform="translate(23.288873, 93.824034)"><g><path d="M 1.21875 -4.09375 L 1.21875 -2.5 L 3.359375 -2.5 L 3.359375 -2.046875 L 1.21875 -2.046875 L 1.21875 0 L 0.65625 0 L 0.65625 -4.546875 L 3.625 -4.546875 L 3.625 -4.09375 Z M 1.21875 -4.09375 "/></g></g></g><g fill="#000000" fill-opacity="1"><g transform="translate(27.81382, 93.824034)"><g><path d="M 4.03125 -4.546875 L 4.03125 -1.6875 C 4.03125 -1.613281 4.03125 -1.539062 4.03125 -1.46875 C 4.03125 -1.40625 4.023438 -1.335938 4.015625 -1.265625 C 3.992188 -1.015625 3.921875 -0.785156 3.796875 -0.578125 C 3.671875 -0.378906 3.488281 -0.21875 3.25 -0.09375 C 3.007812 0.03125 2.703125 0.09375 2.328125 0.09375 C 1.960938 0.09375 1.65625 0.03125 1.40625 -0.09375 C 1.164062 -0.21875 0.984375 -0.378906 0.859375 -0.578125 C 0.734375 -0.785156 0.660156 -1.015625 0.640625 -1.265625 C 0.628906 -1.335938 0.625 -1.40625 0.625 -1.46875 C 0.625 -1.539062 0.625 -1.613281 0.625 -1.6875 L 0.625 -4.546875 L 1.1875 -4.546875 L 1.1875 -1.734375 C 1.1875 -1.660156 1.1875 -1.585938 1.1875 -1.515625 C 1.1875 -1.453125 1.191406 -1.390625 1.203125 -1.328125 C 1.222656 -1.046875 1.328125 -0.8125 1.515625 -0.625 C 1.710938 -0.445312 1.984375 -0.359375 2.328125 -0.359375 C 2.679688 -0.359375 2.953125 -0.445312 3.140625 -0.625 C 3.328125 -0.8125 3.429688 -1.046875 3.453125 -1.328125 C 3.460938 -1.390625 3.46875 -1.453125 3.46875 -1.515625 C 3.46875 -1.585938 3.46875 -1.660156 3.46875 -1.734375 L 3.46875 -4.546875 Z M 4.03125 -4.546875 "/></g></g></g><g fill="#000000" fill-opacity="1"><g transform="translate(33.096216, 93.824034)"><g><path d="M 3.6875 -0.46875 L 3.6875 0 L 0.65625 0 L 0.65625 -4.546875 L 1.21875 -4.546875 L 1.21875 -0.46875 Z M 3.6875 -0.46875 "/></g></g></g><g fill="#000000" fill-opacity="1"><g transform="translate(37.673859, 93.824034)"><g><path d="M 3.6875 -0.46875 L 3.6875 0 L 0.65625 0 L 0.65625 -4.546875 L 1.21875 -4.546875 L 1.21875 -0.46875 Z M 3.6875 -0.46875 "/></g></g></g><g fill="#000000" fill-opacity="1"><g transform="translate(42.251503, 93.824034)"><g/></g></g><g fill="#000000" fill-opacity="1"><g transform="translate(44.464578, 93.824034)"><g><path d="M 2.078125 -4.640625 C 2.390625 -4.640625 2.648438 -4.582031 2.859375 -4.46875 C 3.078125 -4.351562 3.242188 -4.191406 3.359375 -3.984375 C 3.484375 -3.773438 3.5625 -3.546875 3.59375 -3.296875 L 2.984375 -3.296875 C 2.960938 -3.578125 2.867188 -3.796875 2.703125 -3.953125 C 2.535156 -4.109375 2.3125 -4.1875 2.03125 -4.1875 C 1.78125 -4.1875 1.570312 -4.128906 1.40625 -4.015625 C 1.238281 -3.898438 1.15625 -3.726562 1.15625 -3.5 C 1.15625 -3.25 1.226562 -3.0625 1.375 -2.9375 C 1.53125 -2.8125 1.785156 -2.707031 2.140625 -2.625 C 2.640625 -2.507812 3.015625 -2.34375 3.265625 -2.125 C 3.515625 -1.90625 3.640625 -1.601562 3.640625 -1.21875 C 3.640625 -0.945312 3.566406 -0.710938 3.421875 -0.515625 C 3.285156 -0.328125 3.097656 -0.175781 2.859375 -0.0625 C 2.628906 0.0390625 2.367188 0.09375 2.078125 0.09375 C 1.578125 0.09375 1.175781 -0.0234375 0.875 -0.265625 C 0.570312 -0.515625 0.394531 -0.859375 0.34375 -1.296875 L 0.953125 -1.296875 C 1.015625 -0.992188 1.144531 -0.757812 1.34375 -0.59375 C 1.539062 -0.4375 1.789062 -0.359375 2.09375 -0.359375 C 2.351562 -0.359375 2.570312 -0.425781 2.75 -0.5625 C 2.9375 -0.695312 3.03125 -0.878906 3.03125 -1.109375 C 3.03125 -1.390625 2.941406 -1.601562 2.765625 -1.75 C 2.597656 -1.894531 2.316406 -2.015625 1.921875 -2.109375 C 1.648438 -2.171875 1.410156 -2.25 1.203125 -2.34375 C 1.003906 -2.445312 0.84375 -2.578125 0.71875 -2.734375 C 0.601562 -2.898438 0.546875 -3.109375 0.546875 -3.359375 C 0.546875 -3.628906 0.613281 -3.859375 0.75 -4.046875 C 0.894531 -4.234375 1.082031 -4.378906 1.3125 -4.484375 C 1.539062 -4.585938 1.796875 -4.640625 2.078125 -4.640625 Z M 2.078125 -4.640625 "/></g></g></g><g fill="#000000" fill-opacity="1"><g transform="translate(49.108082, 93.824034)"><g><path d="M 4.03125 -4.09375 L 2.40625 -4.09375 L 2.40625 0 L 1.84375 0 L 1.84375 -4.09375 L 0.21875 -4.09375 L 0.21875 -4.546875 L 4.03125 -4.546875 Z M 4.03125 -4.09375 "/></g></g></g><g fill="#000000" fill-opacity="1"><g transform="translate(53.929427, 93.824034)"><g><path d="M 3 -1.609375 L 1.328125 -1.609375 L 0.796875 0 L 0.1875 0 L 1.828125 -4.546875 L 2.59375 -4.546875 L 4.15625 0 L 3.546875 0 Z M 1.484375 -2.078125 L 2.859375 -2.078125 L 2.203125 -4.09375 Z M 1.484375 -2.078125 "/></g></g></g><g fill="#000000" fill-opacity="1"><g transform="translate(58.92861, 93.824034)"><g><path d="M 2.453125 -4.640625 C 2.847656 -4.640625 3.175781 -4.570312 3.4375 -4.4375 C 3.695312 -4.300781 3.898438 -4.117188 4.046875 -3.890625 C 4.191406 -3.660156 4.28125 -3.394531 4.3125 -3.09375 L 4.3125 -3.03125 L 3.75 -3.03125 L 3.734375 -3.09375 C 3.671875 -3.425781 3.535156 -3.691406 3.328125 -3.890625 C 3.117188 -4.085938 2.828125 -4.1875 2.453125 -4.1875 C 2.140625 -4.1875 1.867188 -4.101562 1.640625 -3.9375 C 1.421875 -3.78125 1.25 -3.554688 1.125 -3.265625 C 1 -2.972656 0.9375 -2.644531 0.9375 -2.28125 C 0.9375 -1.90625 0.992188 -1.570312 1.109375 -1.28125 C 1.234375 -0.988281 1.40625 -0.757812 1.625 -0.59375 C 1.84375 -0.4375 2.101562 -0.359375 2.40625 -0.359375 C 2.78125 -0.359375 3.070312 -0.457031 3.28125 -0.65625 C 3.488281 -0.863281 3.628906 -1.128906 3.703125 -1.453125 L 3.71875 -1.515625 L 4.28125 -1.515625 L 4.265625 -1.453125 C 4.242188 -1.179688 4.15625 -0.925781 4 -0.6875 C 3.851562 -0.457031 3.644531 -0.269531 3.375 -0.125 C 3.101562 0.0195312 2.769531 0.09375 2.375 0.09375 C 1.9375 0.09375 1.5625 -0.0078125 1.25 -0.21875 C 0.945312 -0.425781 0.710938 -0.707031 0.546875 -1.0625 C 0.390625 -1.414062 0.3125 -1.8125 0.3125 -2.25 C 0.3125 -2.71875 0.398438 -3.128906 0.578125 -3.484375 C 0.753906 -3.847656 1.003906 -4.128906 1.328125 -4.328125 C 1.648438 -4.535156 2.023438 -4.640625 2.453125 -4.640625 Z M 2.453125 -4.640625 "/></g></g></g><g fill="#000000" fill-opacity="1"><g transform="translate(64.322983, 93.824034)"><g><path d="M 2.078125 -2.328125 L 4.015625 0 L 3.21875 0 L 1.65625 -1.9375 L 1.21875 -1.484375 L 1.21875 0 L 0.65625 0 L 0.65625 -4.546875 L 1.21875 -4.546875 L 1.21875 -2.125 L 3.46875 -4.546875 L 4.140625 -4.546875 Z M 2.078125 -2.328125 "/></g></g></g><g fill="#000000" fill-opacity="1"><g transform="translate(69.124562, 93.824034)"><g/></g></g><g fill="#000000" fill-opacity="1"><g transform="translate(71.337639, 93.824034)"><g><path d="M 2.625 -4.515625 C 2.976562 -4.472656 3.289062 -4.363281 3.5625 -4.1875 C 3.832031 -4.019531 4.039062 -3.78125 4.1875 -3.46875 C 4.34375 -3.15625 4.421875 -2.773438 4.421875 -2.328125 C 4.421875 -1.878906 4.34375 -1.488281 4.1875 -1.15625 C 4.03125 -0.832031 3.8125 -0.570312 3.53125 -0.375 C 3.257812 -0.1875 2.945312 -0.0703125 2.59375 -0.03125 C 2.476562 -0.0078125 2.382812 0 2.3125 0 C 2.238281 0 2.140625 0 2.015625 0 L 0.65625 0 L 0.65625 -4.546875 L 2.046875 -4.546875 C 2.171875 -4.546875 2.269531 -4.546875 2.34375 -4.546875 C 2.414062 -4.546875 2.507812 -4.535156 2.625 -4.515625 Z M 2.53125 -0.5 C 2.914062 -0.5625 3.222656 -0.742188 3.453125 -1.046875 C 3.679688 -1.359375 3.796875 -1.785156 3.796875 -2.328125 C 3.796875 -2.828125 3.6875 -3.222656 3.46875 -3.515625 C 3.25 -3.816406 2.945312 -4 2.5625 -4.0625 C 2.488281 -4.070312 2.40625 -4.078125 2.3125 -4.078125 C 2.226562 -4.085938 2.128906 -4.09375 2.015625 -4.09375 L 1.21875 -4.09375 L 1.21875 -0.46875 L 1.984375 -0.46875 C 2.097656 -0.46875 2.195312 -0.46875 2.28125 -0.46875 C 2.375 -0.46875 2.457031 -0.476562 2.53125 -0.5 Z M 2.53125 -0.5 "/></g></g></g><g fill="#000000" fill-opacity="1"><g transform="translate(76.797874, 93.824034)"><g><path d="M 3.6875 -0.46875 L 3.6875 0 L 0.65625 0 L 0.65625 -4.546875 L 3.625 -4.546875 L 3.625 -4.09375 L 1.21875 -4.09375 L 1.21875 -2.5 L 3.421875 -2.5 L 3.421875 -2.046875 L 1.21875 -2.046875 L 1.21875 -0.46875 Z M 3.6875 -0.46875 "/></g></g></g><g fill="#000000" fill-opacity="1"><g transform="translate(81.454555, 93.824034)"><g><path d="M 2.546875 0 L 1.78125 0 L 0.21875 -4.546875 L 0.828125 -4.546875 L 2.171875 -0.421875 L 3.578125 -4.546875 L 4.1875 -4.546875 Z M 2.546875 0 "/></g></g></g><g fill="#000000" fill-opacity="1"><g transform="translate(86.341762, 93.824034)"><g><path d="M 3.6875 -0.46875 L 3.6875 0 L 0.65625 0 L 0.65625 -4.546875 L 3.625 -4.546875 L 3.625 -4.09375 L 1.21875 -4.09375 L 1.21875 -2.5 L 3.421875 -2.5 L 3.421875 -2.046875 L 1.21875 -2.046875 L 1.21875 -0.46875 Z M 3.6875 -0.46875 "/></g></g></g><g fill="#000000" fill-opacity="1"><g transform="translate(90.998442, 93.824034)"><g><path d="M 3.6875 -0.46875 L 3.6875 0 L 0.65625 0 L 0.65625 -4.546875 L 1.21875 -4.546875 L 1.21875 -0.46875 Z M 3.6875 -0.46875 "/></g></g></g><g fill="#000000" fill-opacity="1"><g transform="translate(95.576087, 93.824034)"><g><path d="M 2.453125 -4.640625 C 2.921875 -4.640625 3.3125 -4.535156 3.625 -4.328125 C 3.945312 -4.128906 4.191406 -3.851562 4.359375 -3.5 C 4.523438 -3.144531 4.609375 -2.738281 4.609375 -2.28125 C 4.609375 -1.8125 4.523438 -1.398438 4.359375 -1.046875 C 4.191406 -0.691406 3.945312 -0.410156 3.625 -0.203125 C 3.3125 -0.00390625 2.921875 0.09375 2.453125 0.09375 C 1.992188 0.09375 1.601562 -0.00390625 1.28125 -0.203125 C 0.96875 -0.410156 0.726562 -0.691406 0.5625 -1.046875 C 0.394531 -1.398438 0.3125 -1.8125 0.3125 -2.28125 C 0.3125 -2.738281 0.394531 -3.144531 0.5625 -3.5 C 0.726562 -3.851562 0.96875 -4.128906 1.28125 -4.328125 C 1.601562 -4.535156 1.992188 -4.640625 2.453125 -4.640625 Z M 2.453125 -0.359375 C 2.929688 -0.359375 3.300781 -0.53125 3.5625 -0.875 C 3.832031 -1.21875 3.96875 -1.6875 3.96875 -2.28125 C 3.96875 -2.875 3.832031 -3.335938 3.5625 -3.671875 C 3.300781 -4.015625 2.929688 -4.1875 2.453125 -4.1875 C 1.972656 -4.1875 1.597656 -4.015625 1.328125 -3.671875 C 1.066406 -3.335938 0.9375 -2.875 0.9375 -2.28125 C 0.9375 -1.6875 1.066406 -1.21875 1.328125 -0.875 C 1.597656 -0.53125 1.972656 -0.359375 2.453125 -0.359375 Z M 2.453125 -0.359375 "/></g></g></g><g fill="#000000" fill-opacity="1"><g transform="translate(101.220743, 93.824034)"><g><path d="M 2.65625 -4.515625 C 3.03125 -4.472656 3.320312 -4.335938 3.53125 -4.109375 C 3.738281 -3.890625 3.84375 -3.585938 3.84375 -3.203125 C 3.84375 -2.953125 3.789062 -2.734375 3.6875 -2.546875 C 3.582031 -2.359375 3.441406 -2.207031 3.265625 -2.09375 C 3.085938 -1.988281 2.882812 -1.921875 2.65625 -1.890625 C 2.5625 -1.867188 2.46875 -1.859375 2.375 -1.859375 C 2.28125 -1.859375 2.179688 -1.859375 2.078125 -1.859375 L 1.21875 -1.859375 L 1.21875 0 L 0.65625 0 L 0.65625 -4.546875 L 2.078125 -4.546875 C 2.179688 -4.546875 2.28125 -4.546875 2.375 -4.546875 C 2.46875 -4.546875 2.5625 -4.535156 2.65625 -4.515625 Z M 2.625 -2.359375 C 2.789062 -2.398438 2.929688 -2.484375 3.046875 -2.609375 C 3.171875 -2.742188 3.234375 -2.941406 3.234375 -3.203125 C 3.234375 -3.460938 3.171875 -3.65625 3.046875 -3.78125 C 2.929688 -3.914062 2.789062 -4.003906 2.625 -4.046875 C 2.5625 -4.054688 2.488281 -4.0625 2.40625 -4.0625 C 2.320312 -4.070312 2.226562 -4.078125 2.125 -4.078125 L 1.21875 -4.078125 L 1.21875 -2.328125 L 2.125 -2.328125 C 2.226562 -2.328125 2.320312 -2.328125 2.40625 -2.328125 C 2.488281 -2.335938 2.5625 -2.347656 2.625 -2.359375 Z M 2.625 -2.359375 "/></g></g></g><g fill="#000000" fill-opacity="1"><g transform="translate(105.949877, 93.824034)"><g><path d="M 3.6875 -0.46875 L 3.6875 0 L 0.65625 0 L 0.65625 -4.546875 L 3.625 -4.546875 L 3.625 -4.09375 L 1.21875 -4.09375 L 1.21875 -2.5 L 3.421875 -2.5 L 3.421875 -2.046875 L 1.21875 -2.046875 L 1.21875 -0.46875 Z M 3.6875 -0.46875 "/></g></g></g><g fill="#000000" fill-opacity="1"><g transform="translate(110.606558, 93.824034)"><g><path d="M 3.65625 -1.1875 C 3.675781 -0.894531 3.707031 -0.65625 3.75 -0.46875 C 3.789062 -0.28125 3.859375 -0.125 3.953125 0 L 3.328125 0 C 3.265625 -0.144531 3.210938 -0.300781 3.171875 -0.46875 C 3.140625 -0.632812 3.109375 -0.859375 3.078125 -1.140625 C 3.054688 -1.367188 2.992188 -1.554688 2.890625 -1.703125 C 2.796875 -1.847656 2.632812 -1.929688 2.40625 -1.953125 C 2.351562 -1.953125 2.296875 -1.953125 2.234375 -1.953125 C 2.179688 -1.953125 2.128906 -1.953125 2.078125 -1.953125 L 1.21875 -1.953125 L 1.21875 0 L 0.65625 0 L 0.65625 -4.546875 L 2.15625 -4.546875 C 2.269531 -4.546875 2.367188 -4.546875 2.453125 -4.546875 C 2.546875 -4.546875 2.644531 -4.535156 2.75 -4.515625 C 3.070312 -4.472656 3.335938 -4.359375 3.546875 -4.171875 C 3.765625 -3.984375 3.875 -3.695312 3.875 -3.3125 C 3.875 -3.113281 3.832031 -2.941406 3.75 -2.796875 C 3.675781 -2.648438 3.578125 -2.53125 3.453125 -2.4375 C 3.335938 -2.34375 3.207031 -2.273438 3.0625 -2.234375 C 3.25 -2.148438 3.390625 -2.007812 3.484375 -1.8125 C 3.578125 -1.625 3.632812 -1.414062 3.65625 -1.1875 Z M 1.21875 -2.421875 L 2.09375 -2.421875 C 2.195312 -2.421875 2.28125 -2.421875 2.34375 -2.421875 C 2.414062 -2.421875 2.476562 -2.425781 2.53125 -2.4375 C 2.75 -2.457031 2.925781 -2.535156 3.0625 -2.671875 C 3.195312 -2.804688 3.265625 -3 3.265625 -3.25 C 3.265625 -3.507812 3.207031 -3.703125 3.09375 -3.828125 C 2.976562 -3.953125 2.816406 -4.03125 2.609375 -4.0625 C 2.492188 -4.082031 2.34375 -4.09375 2.15625 -4.09375 L 1.21875 -4.09375 Z M 1.21875 -2.421875 "/></g></g></g></svg>